<?xml version="1.0" ?>
<!DOCTYPE svg  PUBLIC '-//W3C//DTD SVG 1.1//EN'  'http://www.w3.org/Graphics/SVG/1.1/DTD/svg11.dtd'>
<!-- Uploaded to: SVG Repo, www.svgrepo.com, Generator: SVG Repo Mixer Tools -->
<svg width="800px" height="800px" viewBox="0 0 70.866 70.866" enable-background="new 0 0 70.865 70.866" id="圖層_1" version="1.1" xml:space="preserve" xmlns="http://www.w3.org/2000/svg" xmlns:xlink="http://www.w3.org/1999/xlink">
<g>
<path d="M8.861,13.346h34.813   c2.97,0,5.631,1.836,6.686,4.612l3.356,8.835c0.772,2.031,2.721,3.375,4.895,3.375h2.123c4.651,0,8.422,3.771,8.422,8.422v4.207   c0,4.396-3.564,7.961-7.961,7.961H8.169c-3.568,0-6.46-2.892-6.46-6.459v-23.8C1.709,16.549,4.911,13.346,8.861,13.346z" fill="#FFFFFF" stroke="#00A0E9" stroke-linejoin="round" stroke-miterlimit="10" stroke-width="3"/>
<circle cx="14.905" cy="50.758" fill="#FFFFFF" r="6.763" stroke="#00A0E9" stroke-linejoin="round" stroke-miterlimit="10" stroke-width="3"/>
<circle cx="54.148" cy="50.758" fill="#FFFFFF" r="6.763" stroke="#00A0E9" stroke-linejoin="round" stroke-miterlimit="10" stroke-width="3"/>
<path d="M43.675,18.456   c0.842,0,1.61,0.53,1.909,1.317l2.613,6.879c0.252,0.663,0.558,1.297,0.905,1.901H38.481V18.456H43.675z" fill="#FFFFFF" stroke="#00A0E9" stroke-linejoin="round" stroke-miterlimit="10" stroke-width="3"/>
<rect fill="#FFFFFF" height="10.098" stroke="#00A0E9" stroke-linejoin="round" stroke-miterlimit="10" stroke-width="3" width="10.723" x="22.649" y="18.456"/>
<path d="M6.818,20.499   c0-1.126,0.917-2.043,2.043-2.043h8.679v10.098H6.818V20.499z" fill="#FFFFFF" stroke="#00A0E9" stroke-linejoin="round" stroke-miterlimit="10" stroke-width="3"/>
<line fill="none" stroke="#00A0E9" stroke-linejoin="round" stroke-miterlimit="10" stroke-width="3" x1="38.481" x2="41.316" y1="34.992" y2="34.992"/>
</g>
</svg>