<?xml version="1.0" encoding="UTF-8" standalone="no"?>
<svg
   xmlns:dc="http://purl.org/dc/elements/1.1/"
   xmlns:cc="http://creativecommons.org/ns#"
   xmlns:rdf="http://www.w3.org/1999/02/22-rdf-syntax-ns#"
   xmlns:svg="http://www.w3.org/2000/svg"
   xmlns="http://www.w3.org/2000/svg"
   xmlns:xlink="http://www.w3.org/1999/xlink"
   id="svg2"
   viewBox="0 0 118081.61 50155.551"
   version="1.1"
   width="1180.816mm"
   height="501.55551mm"
   xml:space="preserve"
   style="clip-rule:evenodd;fill-rule:evenodd;image-rendering:optimizeQuality;shape-rendering:geometricPrecision;text-rendering:geometricPrecision"><metadata
     id="metadata70"><rdf:RDF><cc:Work
         rdf:about=""><dc:format>image/svg+xml</dc:format><dc:type
           rdf:resource="http://purl.org/dc/dcmitype/StillImage" /><dc:title></dc:title></cc:Work></rdf:RDF></metadata><defs
     id="defs4"><style
       id="style6"
       type="text/css"><![CDATA[
    .str0 {stroke:#373435;stroke-width:20}
    .fil1 {fill:#4B4B4D}
    .fil2 {fill:#373435}
    .fil4 {fill:#ED3237}
    .fil0 {fill:#201E1E}
    .fil9 {fill:url(#id0)}
    .fil6 {fill:url(#id1)}
    .fil5 {fill:url(#id2)}
    .fil3 {fill:url(#id3)}
    .fil7 {fill:url(#id4)}
    .fil8 {fill:url(#id5)}
   ]]></style><linearGradient
       x1="1572.9"
       y1="4706.7998"
       x2="1558.6"
       gradientUnits="userSpaceOnUse"
       y2="5400.7998"
       id="id0"><stop
         id="stop9"
         offset="0"
         stop-color="#BDBFC1" /><stop
         id="stop11"
         offset="1"
         stop-color="#FEFEFE" /></linearGradient><linearGradient
       x1="9015"
       y1="2032"
       x2="8973"
       gradientUnits="userSpaceOnUse"
       xlink:href="#id0"
       y2="3641.3999"
       id="id1" /><linearGradient
       x1="13950"
       y1="1929.9"
       x2="13904"
       gradientUnits="userSpaceOnUse"
       xlink:href="#id0"
       y2="3292.7"
       id="id2" /><linearGradient
       x1="8832.2998"
       y1="1330"
       x2="8373.2002"
       gradientUnits="userSpaceOnUse"
       y2="7158"
       id="id3"><stop
         id="stop16"
         offset="0"
         stop-color="#E6E7E8" /><stop
         id="stop18"
         offset=".18039"
         stop-color="#F7F7F7" /><stop
         id="stop20"
         offset=".76078"
         stop-color="#FEFEFE" /><stop
         id="stop22"
         offset="1"
         stop-color="#E6E7E8" /></linearGradient><radialGradient
       r="1052.6"
       gradientTransform="matrix(-1.4142,0.0033016,-0.0033016,-1.4142,40442,16812)"
       cx="16742"
       cy="6986.6001"
       gradientUnits="userSpaceOnUse"
       id="id4"><stop
         id="stop25"
         offset="0"
         stop-color="#BDBFC1" /><stop
         id="stop27"
         offset="1"
         stop-color="#848688" /></radialGradient><radialGradient
       r="1052.6"
       gradientTransform="matrix(-1.4142,0.0032761,-0.0032761,-1.4142,8896,17289)"
       cx="3675"
       cy="7166.2002"
       gradientUnits="userSpaceOnUse"
       xlink:href="#id4"
       id="id5" /><radialGradient
       r="1052.6"
       cy="6986.6001"
       cx="16742"
       gradientTransform="matrix(-1.4142,0.0033016,-0.0033016,-1.4142,40442,16812)"
       gradientUnits="userSpaceOnUse"
       id="radialGradient4198"
       xlink:href="#id4" /><linearGradient
       y2="5400.7998"
       x2="1558.6"
       y1="4706.7998"
       x1="1572.9"
       gradientUnits="userSpaceOnUse"
       id="linearGradient4200"
       xlink:href="#id0" /></defs><g
     transform="matrix(6.0599223,0,0,6.0599223,-1559.1657,-5214.7285)"
     id="Camada_x0020_1"><g
       id="_225011403088"><path
         style="fill:#201e1e"
         id="path32"
         d="m 11849,1987 -123,1522 c 0,0 -22,3 -22,21 -1,19 0,34 0,34 0,0 -8,17 41,13 49,-4 1790,-123 1790,-123 l 1834,-115 643,-28 59,-4 c 0,0 96,6 118,-64 22,-69 58,-318 58,-318 0,0 -2,-153 -59,-234 -58,-82 -82,-137 -162,-222 -80,-86 -292,-263 -292,-263 l -354,-240 c 0,0 -149,-136 -653,-212 -504,-77 -671,-62 -928,-90 -258,-28 -908,-20 -908,-20 l -663,-3 c 0,0 -161,5 -235,76 -73,72 -99,100 -120,162 -20,61 -24,108 -24,108 z"
         class="fil0" /><path
         style="fill:#4b4b4d"
         id="path34"
         d="m 5559,7314 -333,-119 -3081,328 -91,3 -381,-691 418,-918 357,-218 85,-67 373,-284 726,-142 761,151 c 0,0 568,340 584,349 16,10 495,608 495,608 l 184,700 -9,281 -88,19 z"
         class="fil1" /><polygon
         style="fill:#4b4b4d;stroke:#373435;stroke-width:20"
         id="polygon36"
         class="fil1 str0"
         points="17286,5055 17787,5481 17817,5499 18798,6047 18616,6876 18481,7183 18237,7270 15201,7214 14846,7053 14722,6571 15159,5780 16585,5076 " /><circle
         style="fill:#373435;stroke:#373435;stroke-width:20"
         cy="0"
         cx="0"
         id="circle38"
         transform="matrix(-0.82063,0.0018997,0.0018997,0.82063,16742,6986.6)"
         class="fil2 str0"
         r="1889" /><circle
         style="fill:#373435;stroke:#373435;stroke-width:20"
         cy="0"
         cx="0"
         id="circle40"
         transform="matrix(-0.82063,0.0018997,0.0018997,0.82063,3675,7166.2)"
         class="fil2 str0"
         r="1889" /><path
         style="fill:url(#id3);stroke:#373435;stroke-width:20"
         id="path42"
         d="m 17040,2010 c 358,283 716,567 1075,850 l 318,240 c 0,0 433,232 462,472 30,241 21,188 21,188 l -7,9 c -190,5 -366,18 -524,42 -135,19 -190,89 -134,228 l 309,519 c 0,0 32,41 113,77 l 11,89 c -10,32 -32,70 -51,95 -51,72 -122,126 -204,158 -54,22 -108,43 -161,65 -35,14 -69,29 -103,43 -35,14 -71,29 -105,44 l -262,117 -11,235 c -1256,-662 -2698,-13 -2941,1572 l -586,19 c 152,-67 256,-186 328,-338 34,-71 61,-144 86,-219 27,-81 52,-163 80,-244 32,-89 67,-175 111,-258 161,-307 369,-558 628,-787 223,-197 417,-422 581,-670 217,-328 346,-698 395,-1088 16,-125 43,-247 66,-371 36,-184 -4,-360 -105,-516 -165,-258 -480,-502 -728,-676 -358,-253 -814,-346 -1244,-380 -953,-74 -1910,-98 -2865,-65 l -16,-2 0,-1 -15,0 c -441,10 -886,40 -1324,92 -250,30 -500,67 -748,116 -226,44 -453,98 -672,169 -221,72 -437,170 -645,274 -197,99 -391,206 -584,313 -213,117 -423,241 -624,378 -174,117 -343,244 -495,387 -247,233 -457,515 -510,858 l 0,4 -1266,136 80,-152 c 0,0 166,-304 205,-347 39,-43 18,-69 134,-102 117,-33 325,-107 671,-291 346,-185 1255,-791 1564,-951 310,-159 561,-331 1219,-582 658,-250 1407,-321 1659,-350 253,-29 942,-79 942,-79 0,0 1817,-74 2176,-36 359,38 551,1 1477,105 927,104 657,60 657,60 178,32 357,64 535,96 107,19 215,37 322,55 0,0 272,77 417,82 144,6 249,24 308,36 59,13 92,23 51,80 -41,57 -90,104 -90,104 0,0 -81,55 19,98 z m -2194,5075 c -15,69 -31,138 -46,207 -16,37 -58,55 -124,56 -2974,82 -5947,174 -8920,256 -113,7 -135,-25 -148,-62 -7,-39 -13,-78 -19,-117 -7,-36 9,-49 41,-48 3072,-94 6144,-198 9216,-292 z M 11101,6082 6050,6426 c 0,0 -96,13 -96,53 1,40 5,72 37,88 33,15 170,6 214,2 25,-2 2678,-173 4907,-315 l -11,-172 z m -177,-1567 -208,18 c -31,-80 -109,-137 -199,-137 l -172,1 c -105,0 -193,105 -210,186 l -74,6 c -101,17 -88,144 0,144 l 76,-3 c 28,106 175,183 381,174 111,-5 203,-87 212,-196 l 194,-7 c 139,-7 123,-185 0,-186 z m 4792,-386 -179,14 c -31,-81 -109,-139 -201,-139 l -172,0 c -105,0 -193,106 -210,187 l -101,8 c -100,17 -87,154 0,155 l 107,-3 c 37,99 180,170 377,161 105,-5 193,-78 210,-178 l 170,-5 c 138,-6 122,-197 -1,-200 z M 4945,3616 c 56,-16 63,-1 34,36 -101,168 -201,336 -302,504 -16,26 -45,41 -86,46 -810,98 -1626,230 -2448,392 -355,64 -703,175 -1048,307 -32,27 -74,42 -69,5 202,-327 685,-512 1224,-669 882,-252 1774,-476 2695,-621 z M 1879,5213 c 207,166 427,321 632,488 -396,366 -631,860 -576,1582 17,96 56,184 134,257 -194,-35 -638,-19 -946,-139 -156,-79 -273,-205 -294,-406 98,62 172,83 197,22 33,-141 25,-303 -87,-516 -34,-50 -75,-90 -143,-89 -94,4 -120,-54 -115,-140 4,-85 23,-484 2,-484 -21,0 66,-226 206,-265 140,-38 615,-183 615,-183 0,0 183,-36 316,-124 25,-18 29,-27 59,-3 z m 9271,-3173 c -112,504 -223,1007 -335,1511 -2,22 -5,45 -7,68 0,35 -28,50 -83,44 -1289,103 -2578,205 -3867,308 -10,17 -36,25 -79,25 -186,13 -373,26 -559,40 63,-237 93,-329 231,-533 2,-27 4,-53 6,-80 -5,-34 11,-61 41,-84 67,-35 134,-71 202,-106 45,-37 90,-73 135,-110 74,-54 147,-108 221,-162 11,-8 22,-17 33,-25 17,-8 30,-6 40,2 813,-566 1649,-929 2506,-1104 388,-69 779,-110 1170,-137 347,-19 379,143 345,343 z m -386,1516 -7,0 -7,-1 -6,1 c -1239,98 -2500,232 -3740,334 258,-149 250,-577 72,-702 l 52,-164 41,-29 c 749,-522 1577,-922 2479,-1093 383,-73 772,-112 1162,-136 76,-5 219,-7 264,72 29,52 19,134 8,189 -100,507 -229,964 -312,1474 -2,19 -5,37 -6,55 z m 1085,-1569 -123,1522 c 0,0 -22,3 -22,21 -1,19 0,34 0,34 0,0 -8,17 41,13 49,-4 1790,-123 1790,-123 l 1834,-115 643,-28 59,-4 c 0,0 96,6 118,-64 22,-69 58,-318 58,-318 0,0 -2,-153 -59,-234 -58,-82 -82,-137 -162,-222 -80,-86 -292,-263 -292,-263 l -354,-240 c 0,0 -149,-136 -653,-212 -504,-77 -671,-62 -928,-90 -258,-28 -908,-20 -908,-20 l -663,-3 c 0,0 -161,5 -235,76 -73,72 -99,100 -120,162 -20,61 -24,108 -24,108 z m 69,6 c 3,-29 12,-64 21,-93 19,-57 61,-92 103,-133 38,-38 135,-55 187,-56 l 662,2 c 52,0 105,-1 158,-1 115,0 231,1 346,3 130,2 267,4 396,18 53,6 106,10 159,14 102,6 204,11 306,20 155,13 308,32 460,55 162,25 337,62 488,125 36,16 99,45 130,71 2,2 5,4 7,6 l 351,238 c 55,46 110,93 163,141 41,36 83,74 120,113 36,38 65,76 93,120 21,32 41,64 63,95 31,44 45,135 47,190 -8,54 -17,108 -26,161 -8,44 -16,99 -29,140 -4,13 -37,16 -49,16 l -8,0 -58,4 -643,28 -1834,114 c -1,0 -1409,97 -1735,120 l 122,-1511 z m 2266,5081 -2939,97 c 0,-13 0,-27 -1,-40 l -3,-76 c -11,-269 -23,-538 -33,-808 1579,-101 2920,-187 2920,-187 0,0 57,-2 155,-47 98,-45 147,-78 147,-78 0,0 34,-37 15,-53 -19,-16 -18,-25 -45,-23 -26,2 -37,1 -37,1 l -3161,215 c -4,-117 -7,-233 -9,-350 -10,-442 -7,-884 24,-1325 19,-264 41,-527 72,-789 67,-565 177,-1124 254,-1687 13,-91 25,-181 35,-272 6,-54 9,-108 14,-162 l 2,0 c 954,-32 1910,-9 2861,66 424,34 876,125 1230,374 150,106 298,219 434,344 104,95 209,204 285,323 96,150 135,318 101,495 -24,124 -51,246 -66,372 -49,385 -176,751 -391,1075 -162,246 -355,469 -575,664 -262,231 -473,485 -635,795 -45,85 -81,172 -113,262 -28,82 -53,164 -81,246 -24,73 -51,145 -84,215 -74,158 -184,278 -350,338 l -2,0 -1,1 -23,14 z m -8192,-3030 1,-6 c 53,-331 259,-604 498,-829 151,-142 319,-269 491,-385 200,-136 410,-259 622,-376 193,-107 386,-213 583,-312 206,-104 421,-202 641,-273 218,-71 443,-124 668,-168 247,-48 496,-85 746,-115 423,-50 851,-80 1277,-91 l 42,-1 c -4,53 -7,107 -14,160 -76,656 -211,1304 -289,1959 -31,263 -52,527 -71,791 -28,389 -34,780 -28,1171 -5,415 6,841 43,1284 4,93 8,187 11,280 1,13 1,26 1,39 l -5126,168 -1,-4 c -164,-566 -279,-1154 -298,-1744 -17,-519 42,-1031 200,-1526 l 7,-22 -4,0 z m 64,3297 -452,14 c -35,-2 -50,-28 -47,-75 C 5390,5628 3833,4753 2522,5674 c -205,-160 -409,-320 -613,-480 -24,-24 -15,-46 8,-68 252,-203 385,-384 404,-543 784,-151 1570,-276 2359,-373 l -9,1 8,4 4,2 4,-1 c 422,-45 844,-91 1266,-137 -154,492 -212,1000 -195,1514 19,591 134,1180 298,1748 z m 5103,-1772 3,156 c 2,126 6,251 10,377 9,250 19,501 30,751 -37,-443 -48,-869 -43,-1284 z m 7547,-922 c 61,22 145,40 256,40 0,10 1,15 1,15 0,0 27,12 35,74 9,61 14,143 14,143 0,0 53,157 121,224 67,68 166,127 180,331 14,203 7,473 -13,579 -20,106 -32,237 -32,237 0,0 -14,73 15,142 28,70 45,82 12,133 -32,51 -333,462 -333,462 0,0 -90,88 -190,106 -100,19 -291,50 -291,50 5,-27 11,-55 16,-82 56,-184 58,-363 25,-538 -97,-499 -348,-837 -705,-1064 l 11,-233 244,-108 c 50,-22 100,-43 150,-64 72,-30 146,-59 219,-88 88,-35 163,-92 218,-170 21,-29 45,-71 55,-106 l 1,-3 -9,-80 z"
         class="fil3 str0" /><path
         style="fill:#201e1e"
         id="path44"
         d="m 11150,2040 c -112,504 -223,1007 -335,1511 -2,22 -5,45 -7,68 0,35 -28,50 -83,44 -1289,103 -2578,205 -3867,308 -10,17 -37,25 -79,25 -186,13 -373,26 -559,40 63,-237 93,-329 231,-533 2,-27 4,-53 6,-80 -5,-34 11,-61 41,-84 67,-35 134,-71 202,-106 45,-37 90,-73 135,-110 74,-54 147,-108 221,-162 11,-8 22,-17 33,-25 17,-8 30,-6 40,2 813,-566 1649,-929 2506,-1104 388,-69 779,-110 1170,-137 347,-19 379,143 345,343 z"
         class="fil0" /><path
         style="fill:#ed3237;stroke:#373435;stroke-width:20"
         id="path46"
         d="m 18909,3769 -5,7 c 0,0 10,51 29,61 18,10 43,33 41,59 -2,27 10,448 10,448 l 0,194 c 0,0 -14,76 -20,109 -3,17 -3,31 -2,40 -303,-1 -402,-129 -402,-129 l -309,-519 c -56,-139 -1,-209 134,-228 157,-24 334,-37 524,-42 z"
         class="fil4 str0" /><path
         style="fill:url(#id2)"
         id="path48"
         d="m 11918,1993 c 3,-29 12,-64 21,-93 19,-57 61,-92 103,-133 38,-38 135,-55 187,-56 l 661,2 c 53,0 106,-1 159,-1 115,0 231,1 346,3 130,2 267,4 396,18 53,6 106,10 159,14 102,6 204,11 306,20 155,13 308,32 460,55 162,25 337,62 488,125 36,16 99,44 130,71 2,2 5,4 7,6 l 351,238 c 55,46 110,93 163,141 41,36 83,74 120,113 36,38 65,76 93,120 21,32 41,64 63,95 31,44 45,135 47,190 -8,54 -17,108 -26,162 -8,43 -16,98 -29,139 -4,13 -37,16 -49,16 l -8,0 -58,4 -643,28 -1834,114 c -1,0 -1409,97 -1735,120 l 122,-1511 z"
         class="fil5" /><path
         style="fill:#373435"
         id="path50"
         d="m 11101,6082 -5051,344 c 0,0 -96,13 -96,53 1,40 5,72 37,88 33,15 170,6 214,2 25,-2 2678,-173 4907,-315 l -11,-172 z"
         class="fil2" /><path
         style="fill:#373435"
         id="path52"
         d="m 14363,5860 -3170,216 11,172 c 1580,-102 2924,-188 2924,-188 0,0 57,-2 155,-47 98,-45 147,-78 147,-78 0,0 34,-37 15,-53 -19,-16 -18,-25 -45,-23 -26,2 -37,1 -37,1 z"
         class="fil2" /><path
         style="fill:url(#id1)"
         id="path54"
         d="m 10764,3556 -7,0 -7,-1 -6,1 c -1239,98 -2500,232 -3740,334 258,-149 250,-577 72,-702 l 52,-164 41,-29 c 749,-522 1577,-922 2479,-1093 383,-73 772,-112 1162,-136 76,-5 219,-7 264,72 29,52 19,134 8,189 -100,507 -229,964 -312,1474 -2,19 -5,37 -6,55 z"
         class="fil6" /><path
         style="fill:url(#radialGradient4198);stroke:#373435;stroke-width:20"
         id="path56"
         d="m 16740,5934 c -582,1 -1052,474 -1051,1055 2,581 474,1052 1055,1050 582,-1 1052,-473 1051,-1055 -2,-581 -474,-1051 -1055,-1050 z"
         class="fil7 str0" /><path
         style="fill:url(#id5);stroke:#373435;stroke-width:20"
         id="path58"
         d="m 3673,6114 c -582,1 -1052,473 -1051,1055 2,581 474,1051 1055,1050 582,-2 1052,-474 1051,-1055 -2,-582 -474,-1052 -1055,-1050 z"
         class="fil8 str0" /><path
         style="fill:#373435"
         id="path60"
         d="m 810,6438 c 34,-10 74,27 118,89 72,150 115,292 90,416 7,58 -18,77 -75,59 -14,-33 -32,-71 -51,-110 -44,-46 -51,-99 -48,-154 -17,-84 -25,-145 -29,-196 -2,-35 -4,-69 -5,-104 z"
         class="fil2" /><path
         style="fill:url(#linearGradient4200);stroke:#373435;stroke-width:20"
         id="path62"
         d="m 2298,4591 c -68,267 -497,677 -750,722 -187,61 -373,122 -559,183 -69,26 -111,8 -117,-63 -10,-142 60,-270 132,-399 16,-44 48,-72 94,-86 394,-175 797,-279 1200,-357 z"
         class="fil9 str0" /><path
         style="fill:#4b4b4d;stroke:#373435;stroke-width:20"
         id="path64"
         d="m 15716,4129 c -288,23 -575,47 -863,70 -100,17 -87,154 0,155 288,-8 576,-16 864,-25 138,-6 122,-197 -1,-200 z"
         class="fil1 str0" /><path
         style="fill:#4b4b4d;stroke:#373435;stroke-width:20"
         id="path66"
         d="m 10924,4515 c -288,25 -576,49 -863,74 -101,17 -88,144 0,144 288,-11 576,-21 863,-32 139,-7 123,-185 0,-186 z"
         class="fil1 str0" /></g></g></svg>