<?xml version="1.0" encoding="utf-8"?>
<!-- Generator: Adobe Illustrator 24.3.0, SVG Export Plug-In . SVG Version: 6.00 Build 0)  -->
<svg version="1.1"
	 id="svg2" inkscape:version="1.0.2 (e86c870879, 2021-01-15, custom)" sodipodi:docname="superb.svg" xmlns:cc="http://creativecommons.org/ns#" xmlns:dc="http://purl.org/dc/elements/1.1/" xmlns:inkscape="http://www.inkscape.org/namespaces/inkscape" xmlns:rdf="http://www.w3.org/1999/02/22-rdf-syntax-ns#" xmlns:sodipodi="http://sodipodi.sourceforge.net/DTD/sodipodi-0.dtd" xmlns:svg="http://www.w3.org/2000/svg"
	 xmlns="http://www.w3.org/2000/svg" xmlns:xlink="http://www.w3.org/1999/xlink" x="0px" y="0px" viewBox="0 0 841.9 269.3"
	 style="enable-background:new 0 0 841.9 269.3;" xml:space="preserve">
<style type="text/css">
	.st0{fill:#666666;}
	.st1{fill-rule:evenodd;clip-rule:evenodd;fill:#BFD1FF;}
	.st2{fill-rule:evenodd;clip-rule:evenodd;fill:#A7A7A7;}
	.st3{fill-rule:evenodd;clip-rule:evenodd;fill:#ECECEC;}
	.st4{fill-rule:evenodd;clip-rule:evenodd;fill:#6A849F;}
	.st5{fill-rule:evenodd;clip-rule:evenodd;fill:#D40000;}
	.st6{fill:none;stroke:#000000;stroke-width:1.5;stroke-linejoin:round;stroke-miterlimit:3.2;}
	.st7{fill-rule:evenodd;clip-rule:evenodd;fill:#494949;}
	
		.st8{fill-rule:evenodd;clip-rule:evenodd;fill:#69E500;fill-opacity:0;stroke:#000000;stroke-width:1.5;stroke-linejoin:round;stroke-miterlimit:3.2;}
	
		.st9{fill-rule:evenodd;clip-rule:evenodd;stroke:#000000;stroke-width:1.5;stroke-linecap:round;stroke-linejoin:round;stroke-miterlimit:3.2;}
	.st10{fill:none;stroke:#000000;stroke-width:1.5;stroke-linecap:round;stroke-linejoin:round;stroke-miterlimit:3.2;}
	
		.st11{fill-rule:evenodd;clip-rule:evenodd;fill:#CCCCCC;stroke:#000000;stroke-width:1.5;stroke-linejoin:round;stroke-miterlimit:3.2;}
	
		.st12{fill-rule:evenodd;clip-rule:evenodd;fill:#6A849F;stroke:#000000;stroke-width:1.5;stroke-linejoin:round;stroke-miterlimit:3.2;}
	
		.st13{fill-rule:evenodd;clip-rule:evenodd;fill:#ECECEC;stroke:#000000;stroke-width:1.5;stroke-linejoin:round;stroke-miterlimit:3.2;}
	
		.st14{fill-rule:evenodd;clip-rule:evenodd;fill:#A7A7A7;stroke:#000000;stroke-width:1.5;stroke-linejoin:round;stroke-miterlimit:3.2;}
	
		.st15{fill-rule:evenodd;clip-rule:evenodd;fill:#494949;stroke:#000000;stroke-width:1.5;stroke-linejoin:round;stroke-miterlimit:3.2;}
	.st16{fill:none;stroke:#A5BCCE;stroke-width:1.1982;stroke-linecap:round;stroke-linejoin:round;stroke-miterlimit:3.2;}
	
		.st17{fill-rule:evenodd;clip-rule:evenodd;fill:#FFFFFF;stroke:#A5BCCE;stroke-width:1.1982;stroke-linecap:round;stroke-linejoin:round;stroke-miterlimit:3.2;}
	.st18{fill-rule:evenodd;clip-rule:evenodd;fill:#CCCCCC;}
	.st19{fill-rule:evenodd;clip-rule:evenodd;}
	.st20{fill:none;stroke:#000000;stroke-width:1.5975;stroke-linejoin:round;stroke-miterlimit:3.6297;}
	
		.st21{fill-rule:evenodd;clip-rule:evenodd;fill:#D40000;stroke:#000000;stroke-width:1.5975;stroke-linejoin:round;stroke-miterlimit:3.6297;stroke-opacity:0.914;}
	.st22{fill:none;stroke:#A50000;stroke-width:1.5975;stroke-linecap:round;stroke-linejoin:round;stroke-miterlimit:3.6297;}
	.st23{fill:none;stroke:#717171;stroke-width:1.5975;stroke-linecap:round;stroke-linejoin:round;stroke-miterlimit:3.6297;}
	.st24{fill:#FFFFFF;fill-opacity:0;stroke:#000000;stroke-width:1.5975;stroke-linejoin:round;stroke-miterlimit:3.6297;}
	.st25{fill:#B6B6B6;}
	.st26{fill:#313131;}
	
		.st27{fill-rule:evenodd;clip-rule:evenodd;fill:#4E4E4E;stroke:#EEEEEE;stroke-width:0.7661;stroke-linejoin:round;stroke-miterlimit:3.6297;}
	.st28{stroke:#FFFFFF;stroke-width:0.8644;stroke-linecap:round;stroke-linejoin:round;stroke-miterlimit:3.6297;}
	.st29{fill:#1F1F1F;}
	.st30{fill:none;stroke:#4E4E4E;stroke-width:5.6016;stroke-linecap:round;stroke-linejoin:round;stroke-miterlimit:3.6297;}
	.st31{fill:none;stroke:#EEEEEE;stroke-width:0.8052;stroke-linejoin:round;stroke-miterlimit:3.6297;}
</style>
<sodipodi:namedview  bordercolor="#666666" borderopacity="1" gridtolerance="10" guidetolerance="10" id="namedview143" inkscape:current-layer="layer1" inkscape:cx="410.55027" inkscape:cy="142.28277" inkscape:pageopacity="0" inkscape:pageshadow="2" inkscape:window-height="480" inkscape:window-width="640" inkscape:zoom="1.4122817" objecttolerance="10" pagecolor="#ffffff" showgrid="false">
	</sodipodi:namedview>
<g id="layer1" transform="translate(0,-308.26772)" inkscape:groupmode="layer" inkscape:label="Vrstva 1">
	<path id="path1485" class="st0" d="M596.5,530.2l134.2-2.1l8.5-35.6l-11.9-45.2l-41.2-15.2l-74.4-10.5l-32.9,46L596.5,530.2z"/>
	<path id="path1483" class="st0" d="M79.1,538.3l165.9-3.4l-6.8-81.3l-63.3-28.8l-67.2,11.8l-31.6,49.1l0,0L79.1,538.3z"/>
	<path id="path4387" inkscape:connector-curvature="0" class="st1" d="M454.5,328l-18.2,63.3L301.2,396l-6.6-18.9l6.8-5.6l21.1-12.9
		l18.9-10.1l15.1-6.4l11.9-3.9l9.9-2.7l12.3-2.5l19.8-2.7l19.1-1.4l23.7-1L454.5,328z"/>
	<path id="path4389" inkscape:connector-curvature="0" sodipodi:nodetypes="ccccccccccccc" class="st1" d="M477.3,327.7l25.8-0.1
		l28.1,1.7l18.2,2l16.2,2.9l21.4,5.5c18.6,6.8,37,14.1,53,26.5c-11.5,10.5-27.5,18.6-53.9,21.1l-21.9,1.2l-73.4,1.5l-21.4,0.8
		l4-31.8L477.3,327.7z"/>
	<path id="path7742" inkscape:connector-curvature="0" class="st2" d="M824.1,411.7l1.8,9.7l-24.1-1.2l-4-6.9l6.6-0.7L824.1,411.7z"
		/>
	
		<path id="path7823" inkscape:connector-curvature="0" sodipodi:nodetypes="ccccccccsccccccsccccccccccccccccccscccccccccccccccccccccccccc" class="st3" d="
		M834.7,492.5l0.2,4.6l-2,2.8l-5.7,0.4l-3.7,1.5l-23.7,19l-38.7,4.6l-30.4,2.7c0,0,6.3-83.3-67.1-80.9
		c-70.9,2.3-67.1,83.1-67.1,83.1l-74.4,0.3l-1.8,2l-122.2,0.5l-128.6,1.8l-38.3,0.6c0,0,9.9-93.1-70.3-91.4
		c-84.4,1.8-70.3,95.3-70.3,95.3l-30.7-1.8l-24-0.1L4.6,525.8v-3.6l4.9-3.3l0.1,4.3l19.6-8.8l-8.7-12.1v-4.5H4.8l0.1-20.3
		c5.8-15,13.8-24.7,22.7-35.4l-1.6-2.3l-7.1,0.4l-7.4,8.9l0.3-3c6.1-13.4,20-20.9,37.9-25.8c32.1-8.8,64.9-15.3,98.6-19.9
		c17.1-2.3,32.6-4.9,56.6-5.5l16-0.5l21.1-0.1l50.3-31.7c57-35.8,78.8-46.7,180.6-48.4c58.9-1.7,87.7-0.8,147.3,18.1l132.7,48.2
		l1.7,0.7l3.7-2.7l28.6,3.8l18,3.3l11.4-0.6l2.7,4.9l4.9,12.5l0.3,2.9l-3.3-0.7l-57.3,1.4l18.6,30.5l37.2-3.9l-1-2.6l5.1,0.4
		l13.9,29.2l-2.8,28.8l-40.2,1.6l3.8,4.5L834.7,492.5z"/>
	<path id="path7855" inkscape:connector-curvature="0" class="st4" d="M454.5,328l-18.2,63.3L301.2,396l-6.6-18.9l6.8-5.6l21.1-12.9
		l18.9-10.1l15.1-6.4l11.9-3.9l9.9-2.7l12.3-2.5l19.8-2.7l19.1-1.4l23.7-1L454.5,328z"/>
	<path id="path7857" inkscape:connector-curvature="0" sodipodi:nodetypes="ccccccccccccc" class="st4" d="M477.3,327.7l25.8-0.1
		l28.1,1.7l18.2,2l16.2,2.9l21.4,5.5c18.6,6.8,37,14.1,53,26.5c-11.5,10.5-27.5,18.6-53.9,21.1l-21.9,1.2l-73.4,1.5l-21.4,0.8
		l4-31.8L477.3,327.7z"/>
	<path id="path7859" inkscape:connector-curvature="0" sodipodi:nodetypes="csc" class="st3" d="M337.6,331.5
		c12-4.4,18.7-6.9,33.7-8.9c13.2-1.8,27.9-1.9,39.1-3.6l-51.8,12.4L337.6,331.5z"/>
	<path id="path7910" inkscape:connector-curvature="0" sodipodi:nodetypes="ccccc" class="st5" d="M834.3,488.1l0.4,4l-36.5,2.3
		l-3.9-4.9L834.3,488.1z"/>
	<path id="path7912" inkscape:connector-curvature="0" sodipodi:nodetypes="cc" class="st6" d="M834.4,488.2l0.3,4"/>
	
		<path id="path7930" inkscape:connector-curvature="0" sodipodi:nodetypes="ccccccccccccccccccccccccccccccccccccccccccccccccccccccccccccccccccccccccc" class="st7" d="
		M650,368l-30.4-18.1l-12.3-6.1l-17.7-7.4l-16.2-5.1l-8.2-1.8l-15.1-3l-16.8-1.6c-32.1-2.4-60.5-3.1-99.2-0.9l-18.2,1.2l-11.9,1.6
		l-8.8,1.1l-16,2.9l-5.9,1.6l-13.5,4.1l-7.4,2.6l-13.9,6.1l-10.2,5.3l-8,4.6l-16.2,10.1l-10.7,6.9l-20.5,14l-13.3,9l-0.8,1.6h5.1
		l1.6-2l15.3-10.2l9.3-6.4l3.9-2.4l6.1-3.5l13-8.1l13.5-7.5l11.7-6.2l12.2-5.4l11.5-4.2l5-1.8l10.1-2.8l11-2.3l11.4-1.7l13.4-1.7
		l13.5-0.9l26.1-1.2l24.4-0.4l32,0.4l17.8,1.2l14.4,1.4l13,1.9l13.3,2l13.3,3.1l16.5,5.2l16.5,7l11.1,6l9.3,5.9l6.3,4.3l-1.4,1.4
		l-6,4.7l-11.4,6.5l-9.3,4.1l-11.2,3l-9.2,1.1l-8.8,0.7l-7.8,0.5l5.6,0.7l16.4,0.2l5.9,0.2l5.6-1.8l10-2.7l7.1-2.5l7.5-2.9l4.9-2.8
		l4.8-2.9l5-3.8L650,368z"/>
	
		<path id="path4152" inkscape:connector-curvature="0" sodipodi:nodetypes="ccccccccsccccccsccccccccccccccccccscccccccccccccccccccccccccc" class="st8" d="
		M834.8,492.5l0.2,4.6l-2,2.8l-5.7,0.4l-3.7,1.5l-23.7,19l-38.7,4.6l-30.5,2.7c0,0,6.3-83.3-67.1-80.9
		c-70.9,2.3-67.1,83.1-67.1,83.1l-74.4,0.3l-1.8,2l-122.2,0.5l-128.6,1.8l-38.3,0.6c0,0,9.9-93.1-70.3-91.4
		c-84.4,1.8-70.3,95.3-70.3,95.3l-30.7-1.8l-24-0.1L4.7,525.7v-3.6l4.9-3.3l0.1,4.3l19.6-8.8l39.6-0.3L56,497.6H5l0.1-20.3
		c5.7-14.9,13.7-24.5,22.6-35.3l-1.6-2.3l-7.1,0.4l-7.4,8.9l0.3-3c6.1-13.4,20-20.9,37.9-25.8c32.1-8.8,64.9-15.3,98.6-19.9
		c17.1-2.3,32.6-4.9,56.6-5.5l16-0.5l21.1-0.1l50.3-31.7c57-35.8,79.2-46.3,181-48c58.9-1.7,87.3-1.2,146.9,17.7L753,380.4l1.7,0.7
		l3.7-2.7l28.6,3.8l18,3.3l11.4-0.6l2.7,4.9l4.9,12.5l0.3,2.9l-3.3-0.7l-57.3,1.4l18.6,30.5l37.2-3.9l-1-2.6l5.1,0.4l13.9,29.2
		l-2.8,28.8l-40.2,1.6l3.8,4.5L834.8,492.5z"/>
	<path id="path4154" inkscape:connector-curvature="0" class="st6" d="M8.8,527.1l70.4-1.4L68.9,514"/>
	<path id="path4158" inkscape:connector-curvature="0" class="st6" d="M79.1,538.3l-0.2-12.6h10.7"/>
	<path id="path4160" inkscape:connector-curvature="0" sodipodi:nodetypes="csc" class="st6" d="M78.6,525.7c0,0,1.4-90.5,82.5-92.7
		c80.1-2.2,82.5,88.4,82.5,88.4"/>
	<path id="path4162" inkscape:connector-curvature="0" sodipodi:nodetypes="cccccsc" class="st6" d="M231.5,521.4h20.4l56.4-1.9
		l140.5-4.3l136.8-3.4c0,0,11.1-76.7,79.1-77.9c71.3-1.3,79.1,71,79.1,71"/>
	<path id="path4252" inkscape:connector-curvature="0" sodipodi:nodetypes="cccccccsscccc" class="st6" d="M231.9,526.4l150.5-3
		l107.6-2.6l69.5-1.7c4.9,0.5,10.3-0.6,17.2-7.3c16.1-35.7,33.6-67.9,52.9-95.1c10.9-17.6,33-38.9,20.4-49.1
		c-31-18.5-60.9-38.4-115.5-42.6c-33.6-2.6-60.6-1.8-92.7-1.1c-90.9,2.1-115.7,27.3-183,71.8L246,413.4c-2.5,36.2-2.2,72.4,5.8,108
		l1.2,4.7"/>
	<path id="path4254" inkscape:connector-curvature="0" sodipodi:nodetypes="ccccc" class="st6" d="M251.5,521.3l35.6-12.3l123.4-5
		l137.7-3.5c11.3,3.6,18.7,6.5,28,11.3"/>
	<path id="path4256" inkscape:connector-curvature="0" sodipodi:nodetypes="cc" class="st9" d="M261,489.5L561.2,477"/>
	<path id="path4260" inkscape:connector-curvature="0" sodipodi:nodetypes="cccccc" class="st6" d="M91.2,433.5
		c36-12.8,94.6-16.7,154.5-19.2l226.7-7.6l168.9-3l122,1.5l54-18"/>
	<path id="path4262" inkscape:connector-curvature="0" sodipodi:nodetypes="cc" class="st10" d="M8.4,475.6c14-4.2,35.6-5.1,58-5.6"
		/>
	<path id="path7813" inkscape:connector-curvature="0" sodipodi:nodetypes="cc" class="st6" d="M27.6,442.2l13.5-1.1"/>
	<path id="path4264" inkscape:connector-curvature="0" sodipodi:nodetypes="ccccccccc" class="st11" d="M35.2,442.3l-14.6,18.4
		l-0.5,2l26-3.2l21.5,8.5c2.6-3.6,4.5-7.4,8.2-10.7l19-20.5l-3.2-3.5C71.1,435.6,50.9,438,35.2,442.3L35.2,442.3z"/>
	<path id="path28" class="st12" d="M36.7,444.3c16.9-4.3,35.1-6.5,53.8-8.5l0.9,1.1l-17.6,18.6l-28.1,1.6l-21.3,2.7L36.7,444.3z"/>
	<path id="path4270" inkscape:connector-curvature="0" sodipodi:nodetypes="ccccc" class="st6" d="M314.8,395.5l120.9-4l116.6-3
		l51,0.2c15.6-4.2,31.2-7.4,47.2-20.9"/>
	<path id="path4272" inkscape:connector-curvature="0" sodipodi:nodetypes="cscccc" class="st6" d="M296.9,374.2
		c34.4-22.4,62.1-35.6,93.5-41c24-4.1,48.6-5,73.3-5.4c63.3-1.6,123.8,2.4,170.7,34.6c7.6,4.7,6.6,3.2,1.1,7.5
		c-26.3,19.7-48.1,17-70.9,18.6"/>
	<path id="path4274" inkscape:connector-curvature="0" sodipodi:nodetypes="ccccccccc" class="st13" d="M277.6,394.7l6.7,4.3
		l26.7-1.1l4.1-2.4l0.1-6.5l0.1-7.9c-12.7-18.8-26.4-0.5-35.1,3.7l1.7,6.2L277.6,394.7z"/>
	<path id="path4278" inkscape:connector-curvature="0" sodipodi:nodetypes="csc" class="st6" d="M281.4,391.6
		c6.4-0.9,13.5-1.2,19.8-3.3c4-1.3,8.8-0.5,14,0.2"/>
	<path id="path4280" inkscape:connector-curvature="0" sodipodi:nodetypes="cc" class="st6" d="M281.4,384.1l34-2.4"/>
	<path id="path4282" inkscape:connector-curvature="0" sodipodi:nodetypes="cc" class="st6" d="M288.2,390.7l7,7.8"/>
	<path id="path4288" inkscape:connector-curvature="0" sodipodi:nodetypes="cc" class="st6" d="M783.5,436.6
		c-28.3,5.5-62.2,9.3-82.6,19"/>
	<path id="path4302" inkscape:connector-curvature="0" class="st6" d="M454.7,327.8l-18.6,63.8"/>
	<path id="path4304" inkscape:connector-curvature="0" class="st6" d="M477.2,327.7l-7.5,63.2"/>
	<path id="path4306" inkscape:connector-curvature="0" sodipodi:nodetypes="cccscccc" class="st6" d="M465.7,323.4
		c-4.2,23.5-8.6,47.9-12.5,67.6l-1,4.2c0,0-3.8,7.7-4.5,11.6c-4.7,26.1-2.8,52.3-1.5,75l0.9,21.1l1.6,12.2c0.8,2.8,1.6,5.1,2.5,6.7"
		/>
	<path id="path4310" inkscape:connector-curvature="0" class="st6" d="M20.6,497.7v4.5l8.5,12.5"/>
	<path id="path4312" inkscape:connector-curvature="0" sodipodi:nodetypes="ccc" class="st6" d="M27.6,512.4H11.9l-3.7-2.1"/>
	<path id="path4314" inkscape:connector-curvature="0" class="st14" d="M8.5,498l-0.1,21.5l1.2-0.5l0.1,4.1l19.4-8.5l-7-10.2l-1.5-2
		v-4.6L8.5,498z"/>
	<polygon id="polygon43" class="st12" points="23.3,500 54.7,500 64.1,511.9 30.3,511.9 23.3,502 	"/>
	<path id="path4318" inkscape:connector-curvature="0" sodipodi:nodetypes="ccccccc" class="st15" d="M11.8,448.9l-4.4,15.9
		l-0.5,7.6c5.2-11.1,12.6-20.9,20.8-30l-2-2.6l-6.5,0.5C15,444.9,13.4,446.9,11.8,448.9z"/>
	<path id="path4320" inkscape:connector-curvature="0" sodipodi:nodetypes="ccccc" class="st12" d="M220.8,394.5
		c35.5-21.9,72.2-43.5,115.7-62.8h12.7c-41.6,18.6-70.9,41.7-107.1,62.8H220.8z"/>
	<path id="path4322" inkscape:connector-curvature="0" sodipodi:nodetypes="cc" class="st6" d="M336.4,331.7
		c25.9-8.4,45.1-10.7,69.3-13.5"/>
	<path id="path4324" inkscape:connector-curvature="0" sodipodi:nodetypes="cccc" class="st13" d="M573.4,319.6
		c14,2.8,29.9,5.3,49.3,10.7l-1.1,2.6C608.1,328.2,589,322.4,573.4,319.6L573.4,319.6z"/>
	<path id="path4326" inkscape:connector-curvature="0" sodipodi:nodetypes="cscc" class="st12" d="M621.7,332.9
		c-0.1-0.6,1-2.6,1.1-2.6C751,376.2,739.7,374,754.9,381C755.7,380.5,622.5,333.4,621.7,332.9L621.7,332.9z"/>
	<path id="path4266-6" inkscape:connector-curvature="0" sodipodi:nodetypes="cc" class="st16" d="M72,452.1l12.3-13"/>
	<path id="path4406" inkscape:connector-curvature="0" sodipodi:nodetypes="cc" class="st17" d="M65,453.3l12.3-13"/>
	<path id="path4408" inkscape:connector-curvature="0" sodipodi:nodetypes="cc" class="st16" d="M58.4,454l12.3-13"/>
	<path id="path4410" inkscape:connector-curvature="0" sodipodi:nodetypes="cccc" class="st16" d="M56.4,442.8
		c-6.1,0.9-12.1,1.9-17.9,3.3l-8.8,10.8l14.9-1.8"/>
	<path id="path4185" inkscape:connector-curvature="0" sodipodi:nodetypes="ccc" class="st6" d="M837,459.2
		c-23.3-4.5-28.1-5-46.3-4.7l-61,12"/>
	<path id="path4189" inkscape:connector-curvature="0" sodipodi:nodetypes="ccc" class="st6" d="M743.8,504.4l27.7-13.4h23.9"/>
	<path id="path4191" inkscape:connector-curvature="0" sodipodi:nodetypes="cc" class="st6" d="M834.9,496.3l-91.3,8.1"/>
	<path id="path5213" inkscape:connector-curvature="0" sodipodi:nodetypes="ccc" class="st6" d="M280,384.9l-16.4,11.2h16.2"/>
	<path id="path7706" inkscape:connector-curvature="0" sodipodi:nodetypes="cccccc" class="st18" d="M406.6,425.4
		c5.5,3.2,11.4,5.5,21.4-0.4v-6.4c-6.7-1.8-13.3-2.4-19.7,0L406.6,425.4z"/>
	<path id="path7708" inkscape:connector-curvature="0" sodipodi:nodetypes="ccccccccccccccc" class="st13" d="M400.9,426.2h5
		c0.9,0.1,1.2-0.2,1.8-0.8l1-0.9c0.6-0.7,0.9-0.7,1.8-0.7l15.1-0.2c1.3-0.1,1.8,1.4,2.6,1.7c4.7,0.4,7.4-0.6,10.1-1.7
		c0,0,0.6-0.5,0.6-1.1c0-1.7,0.6-4.3-0.9-4.7c-5.4-1.1-11.1-2.6-12.5,1.3h-16l-2.4-1.4c-3.2,0.3-6,0.9-7.8,2.3
		C397.4,424.8,396.8,424,400.9,426.2L400.9,426.2z"/>
	<path id="path7738" inkscape:connector-curvature="0" sodipodi:nodetypes="cccccc" class="st18" d="M580,423.2
		c5.5,3.2,11.4,5.5,21.4-0.4v-6.4c-6.7-1.8-13.3-2.4-19.7,0L580,423.2z"/>
	<path id="path7740" inkscape:connector-curvature="0" sodipodi:nodetypes="ccccccccccccccc" class="st13" d="M574.3,424.1h5
		c0.9,0.1,1.2-0.2,1.8-0.8l1-0.9c0.6-0.7,0.9-0.7,1.8-0.7l15.1-0.2c1.3-0.1,1.8,1.4,2.6,1.7c4.7,0.4,7.4-0.6,10.1-1.7
		c0,0,0.6-0.5,0.6-1.1c0-1.7,0.6-4.3-0.9-4.7c-5.4-1.1-11.1-2.6-12.5,1.3h-16l-2.4-1.4c-3.2,0.3-6,0.9-7.8,2.3
		C570.8,422.7,570.2,421.9,574.3,424.1L574.3,424.1z"/>
	<path id="path7765" sodipodi:nodetypes="ccccc" class="st19" d="M24.1,440v6.5l1.7-1.8v-4.9L24.1,440z"/>
	<path id="path7773" sodipodi:nodetypes="ccccc" class="st19" d="M21.5,439.9v9.9l1.7-1.9V440L21.5,439.9z"/>
	<path id="path7787" sodipodi:nodetypes="ccccc" class="st19" d="M18.8,440.4v12.8l1.7-2.1V440L18.8,440.4z"/>
	<path id="path7789" sodipodi:nodetypes="ccccc" class="st19" d="M16.1,443.6v13.3l1.7-2.1V442L16.1,443.6z"/>
	<path id="path7791" sodipodi:nodetypes="ccccc" class="st19" d="M13.4,446.8v13.7l1.7-1.9V445L13.4,446.8z"/>
	<path id="path7799" sodipodi:nodetypes="ccccc" class="st19" d="M10.8,452.3v12.9l1.7-2.6v-14.8L10.8,452.3z"/>
	<path id="path7809" sodipodi:nodetypes="ccccc" class="st19" d="M8.2,462v8l1.7-2.7v-11L8.2,462z"/>
	<path id="path7811" inkscape:connector-curvature="0" sodipodi:nodetypes="ccc" class="st6" d="M27.6,512.4H11.9l-3.7-2.1"/>
	<path id="path1489" inkscape:connector-curvature="0" class="st16" d="M46,501.7l5.5,8.4"/>
	<path id="path1487" inkscape:connector-curvature="0" class="st16" d="M37.8,501.9l5.5,8.4"/>
	<path id="path7918" inkscape:connector-curvature="0" class="st16" d="M29.3,501.8l5.5,8.4"/>
	<path id="path7926" inkscape:connector-curvature="0" sodipodi:nodetypes="ccc" class="st6" d="M77.8,455.2l28.6-0.6l7.2,5.1"/>
	<path id="path7928" inkscape:connector-curvature="0" sodipodi:nodetypes="cc" class="st6" d="M585.5,511.7l12.4-0.3"/>
	<path id="path4308" sodipodi:nodetypes="ccccc" class="st19" d="M587,339.7l-7.1,48.8l5.5,0.1l6.6-47.4L587,339.7z"/>
	<g id="g1086" transform="matrix(1.0650332,0,0,1.0650332,-32.664914,-352.48176)">
		<g id="g1096">
			<path id="path7759" inkscape:connector-curvature="0" class="st20" d="M804.2,717.6l2,8.8"/>
			<path id="path4268" inkscape:connector-curvature="0" sodipodi:nodetypes="cccccccccccccc" class="st21" d="M804.7,711.3l-3-0.7
				l-53.9,1l17.6,29.3l34.6-4l-1.1-2.7l4.9,0.5l2.3-8.1l-23-1.3l-3.8-6.6l24.8-1.3l-0.6-1.1h3.2L804.7,711.3z"/>
			<path id="path4328" inkscape:connector-curvature="0" sodipodi:nodetypes="cccc" class="st22" d="M759.9,715.7l11,15.5l22.5-1.4
				l3.2,2.6"/>
			<path id="path4330" inkscape:connector-curvature="0" sodipodi:nodetypes="cc" class="st22" d="M765.2,715.7l9.2,12.3"/>
			<path id="path4332" inkscape:connector-curvature="0" sodipodi:nodetypes="cccc" class="st22" d="M796,734.3l-26.9,2.3
				l-14.5-21.1h37"/>
			<path id="path7761" inkscape:connector-curvature="0" sodipodi:nodetypes="ccc" class="st23" d="M782.9,720.6l2,3.1l19.2,0.9"/>
			<path id="path7763" inkscape:connector-curvature="0" sodipodi:nodetypes="cc" class="st23" d="M786.8,721.5l16.3,0.8"/>
		</g>
	</g>
	<g id="g209_1_" transform="matrix(1.0650332,0,0,1.0650332,-32.664914,-352.48176)">
		<circle id="circle4292_1_" class="st20" cx="654.3" cy="814.9" r="46.3"/>
		<circle id="circle4480_1_" class="st24" cx="655.5" cy="814.2" r="45.1"/>
		<circle id="circle4482_1_" cx="653.7" cy="813.5" r="58.6"/>
		<circle id="circle4484_1_" class="st25" cx="653.8" cy="814" r="40.7"/>
		<circle id="circle4486_1_" class="st26" cx="653.7" cy="814.4" r="35.7"/>
		
			<path id="path4488_1_" inkscape:connector-curvature="0" inkscape:transform-center-x="28.375533" inkscape:transform-center-y="-5.7609524" sodipodi:nodetypes="cccccccccccc" class="st27" d="
			M616,793.5l28.5,11.2l4.4,3.8l-0.6,8.7l-5,3.2l-30.7,3.9h-0.3 M610.9,817.2h0.2l28.5-1.6l0.5-6.2l-27.1-9.8"/>
		
			<path id="path4490_1_" inkscape:connector-curvature="0" inkscape:transform-center-x="8.9155692" inkscape:transform-center-y="-28.207641" sodipodi:nodetypes="ccccccccccccc" class="st27" d="
			M637.7,773.8l0.1,0.2l10.2,26.5l6.1-1.4l1.1-28.8 M661.8,771.1v0.2l-1.9,30.5l-2.3,5.3l-8.5,2l-4.6-3.8l-13.2-28l-0.1-0.2"/>
		
			<path id="path4492_1_" inkscape:connector-curvature="0" inkscape:transform-center-x="-26.833131" inkscape:transform-center-y="-18.249424" sodipodi:nodetypes="ccccccccccccc" class="st27" d="
			M697.3,808.1l-0.3,0.1l-29.5,7.5l-5.8-0.5l-4.6-7.6l2.2-5.5l22.6-21.1l0.3-0.3 M687.4,785.9l-0.3,0.2L664.9,804l3.1,5.3l27.7-7.8"
			/>
		
			<path id="path4494_1_" inkscape:connector-curvature="0" inkscape:transform-center-x="-24.191479" inkscape:transform-center-y="23.229014" sodipodi:nodetypes="ccccccccccccc" class="st27" d="
			M673.2,852.9l-0.1-0.2L656.6,827l-1.3-5.7l5.7-6.7l6,0.4l27.2,14.8l0.5,0.3 M691.1,836.6l-0.3-0.2L666.7,821l-4.1,4.7l16.2,23.9"
			/>
		
			<path id="path4496_1_" inkscape:connector-curvature="0" inkscape:transform-center-x="16.446769" inkscape:transform-center-y="27.281588" sodipodi:nodetypes="ccccccccccccc" class="st27" d="
			M623.1,844.1l0.1-0.2l19.2-23.7l5-3l8.1,3.3l1.5,5.8l-5.2,29l-0.3,1.9 M644.1,856.1l0.1-0.4l7-27.5l-5.7-2.3L628,848.6"/>
		<circle id="circle4498_1_" class="st28" cx="654.1" cy="813.7" r="3.8"/>
		
			<circle id="circle4500_1_" inkscape:transform-center-x="1.8442137" inkscape:transform-center-y="-11.707329" class="st29" cx="652.6" cy="803.8" r="2.8">
		</circle>
		
			<ellipse id="circle4502_1_" inkscape:transform-center-x="-10.462396" inkscape:transform-center-y="-5.5679836" transform="matrix(0.9451 -0.3267 0.3267 0.9451 -227.9549 261.0689)" class="st29" cx="663.2" cy="809.1" rx="3.2" ry="3.2">
		</ellipse>
		
			<ellipse id="circle4504_1_" inkscape:transform-center-x="-8.5822734" inkscape:transform-center-y="8.1737303" transform="matrix(0.7939 -0.608 0.608 0.7939 -362.7778 571.3796)" class="st29" cx="661.5" cy="820.9" rx="3.2" ry="3.2">
		</ellipse>
		
			<circle id="circle4506_1_" inkscape:transform-center-x="4.5528767" inkscape:transform-center-y="10.942379" class="st29" cx="650.3" cy="823.2" r="2.8">
		</circle>
		
			<ellipse id="circle4508_1_" inkscape:transform-center-x="11.790096" inkscape:transform-center-y="-1.2092278" transform="matrix(0.2556 -0.9668 0.9668 0.2556 -306.2851 1227.7823)" class="st29" cx="644.1" cy="812.8" rx="3.2" ry="3.2">
		</ellipse>
		<circle id="circle4510_1_" class="st30" cx="653.8" cy="814.5" r="42.4"/>
		
			<path id="path4512_1_" inkscape:connector-curvature="0" inkscape:transform-center-x="8.4787688" inkscape:transform-center-y="9.197247" sodipodi:nodetypes="cc" class="st31" d="
			M647.5,817.3l-1.8,8.4"/>
		
			<path id="path4514_1_" inkscape:connector-curvature="0" inkscape:transform-center-x="0.27533904" inkscape:transform-center-y="13.537852" sodipodi:nodetypes="cc" class="st31" d="
			M651.1,828.2l5-6.1"/>
		<path id="path4516_1_" inkscape:connector-curvature="0" sodipodi:nodetypes="cc" class="st31" d="M639.9,809.5l8.6-0.6"/>
		<path id="path4518_1_" inkscape:connector-curvature="0" class="st31" d="M639.5,815.6l6.9,2.3"/>
		<path id="path4520_1_" inkscape:connector-curvature="0" sodipodi:nodetypes="cc" class="st31" d="M648.2,800.6l0.6,8.4"/>
		<path id="path4522_1_" inkscape:connector-curvature="0" class="st31" d="M654.1,799.2l3.7,6.1"/>
		<path id="path4524_1_" inkscape:connector-curvature="0" sodipodi:nodetypes="cc" class="st31" d="M665,804l-8.1,3.4"/>
		<path id="path4526_1_" inkscape:connector-curvature="0" sodipodi:nodetypes="cc" class="st31" d="M668.6,809.2l-5.7,5.7"/>
		<path id="path4528_1_" inkscape:connector-curvature="0" class="st31" d="M666.9,821.2l-4.2-6.5"/>
		<path id="path4530_1_" inkscape:connector-curvature="0" class="st31" d="M662.9,825.7l-6.9-3.3"/>
	</g>
	<g id="g209_2_" transform="matrix(1.0650332,0,0,1.0650332,-32.664914,-352.48176)">
		<circle id="circle4292_2_" class="st20" cx="181.9" cy="815" r="46.3"/>
		<circle id="circle4480_3_" class="st24" cx="183.1" cy="814.2" r="45.1"/>
		<circle id="circle4482_2_" cx="181.3" cy="813.6" r="58.6"/>
		<circle id="circle4484_2_" class="st25" cx="181.4" cy="814" r="40.7"/>
		<circle id="circle4486_2_" class="st26" cx="181.3" cy="814.5" r="35.7"/>
		
			<path id="path4488_2_" inkscape:connector-curvature="0" inkscape:transform-center-x="28.375533" inkscape:transform-center-y="-5.7609524" sodipodi:nodetypes="cccccccccccc" class="st27" d="
			M143.6,793.6l28.5,11.2l4.4,3.8l-0.6,8.7l-5,3.2l-30.7,3.9h-0.3 M138.5,817.2h0.2l28.5-1.6l0.5-6.2l-27.1-9.8"/>
		
			<path id="path4490_2_" inkscape:connector-curvature="0" inkscape:transform-center-x="8.9155692" inkscape:transform-center-y="-28.207641" sodipodi:nodetypes="ccccccccccccc" class="st27" d="
			M165.3,773.8l0.1,0.2l10.2,26.5l6.1-1.4l1.1-28.8 M189.4,771.2v0.2l-1.9,30.5l-2.3,5.3l-8.5,2l-4.6-3.8l-13.2-28l-0.1-0.2"/>
		
			<path id="path4492_2_" inkscape:connector-curvature="0" inkscape:transform-center-x="-26.833131" inkscape:transform-center-y="-18.249424" sodipodi:nodetypes="ccccccccccccc" class="st27" d="
			M224.9,808.2l-0.3,0.1l-29.5,7.5l-5.8-0.5l-4.6-7.6l2.2-5.5l22.6-21.1l0.3-0.3 M215,786l-0.3,0.2l-22.2,17.9l3.1,5.3l27.7-7.8"/>
		
			<path id="path4494_2_" inkscape:connector-curvature="0" inkscape:transform-center-x="-24.191479" inkscape:transform-center-y="23.229014" sodipodi:nodetypes="ccccccccccccc" class="st27" d="
			M200.8,852.9l-0.1-0.2L184.2,827l-1.3-5.7l5.7-6.7l6,0.4l27.2,14.8l0.5,0.3 M218.7,836.6l-0.3-0.2l-24.1-15.4l-4.1,4.7l16.2,23.9"
			/>
		
			<path id="path4496_2_" inkscape:connector-curvature="0" inkscape:transform-center-x="16.446769" inkscape:transform-center-y="27.281588" sodipodi:nodetypes="ccccccccccccc" class="st27" d="
			M150.7,844.2l0.1-0.2l19.2-23.7l5-3l8.1,3.3l1.5,5.8l-5.2,29l-0.3,1.9 M171.7,856.1l0.1-0.4l7-27.5l-5.7-2.3l-17.6,22.8"/>
		<circle id="circle4498_2_" class="st28" cx="181.7" cy="813.8" r="3.8"/>
		
			<circle id="circle4500_2_" inkscape:transform-center-x="1.8442137" inkscape:transform-center-y="-11.707329" class="st29" cx="180.2" cy="803.9" r="2.8">
		</circle>
		
			<ellipse id="circle4502_2_" inkscape:transform-center-x="-10.462396" inkscape:transform-center-y="-5.5679836" transform="matrix(0.9451 -0.3267 0.3267 0.9451 -253.9006 106.7355)" class="st29" cx="190.8" cy="809.2" rx="3.2" ry="3.2">
		</ellipse>
		
			<ellipse id="circle4504_2_" inkscape:transform-center-x="-8.5822734" inkscape:transform-center-y="8.1737303" transform="matrix(0.7939 -0.608 0.608 0.7939 -460.1709 284.1663)" class="st29" cx="189.1" cy="820.9" rx="3.2" ry="3.2">
		</ellipse>
		
			<circle id="circle4506_2_" inkscape:transform-center-x="4.5528767" inkscape:transform-center-y="10.942379" class="st29" cx="177.9" cy="823.3" r="2.8">
		</circle>
		
			<ellipse id="circle4508_2_" inkscape:transform-center-x="11.790096" inkscape:transform-center-y="-1.2092278" transform="matrix(0.2556 -0.9668 0.9668 0.2556 -658.0092 771.1255)" class="st29" cx="171.7" cy="812.9" rx="3.2" ry="3.2">
		</ellipse>
		<circle id="circle4510_2_" class="st30" cx="181.4" cy="814.6" r="42.4"/>
		
			<path id="path4512_2_" inkscape:connector-curvature="0" inkscape:transform-center-x="8.4787688" inkscape:transform-center-y="9.197247" sodipodi:nodetypes="cc" class="st31" d="
			M175.1,817.3l-1.8,8.4"/>
		
			<path id="path4514_2_" inkscape:connector-curvature="0" inkscape:transform-center-x="0.27533904" inkscape:transform-center-y="13.537852" sodipodi:nodetypes="cc" class="st31" d="
			M178.7,828.3l5-6.1"/>
		<path id="path4516_2_" inkscape:connector-curvature="0" sodipodi:nodetypes="cc" class="st31" d="M167.5,809.5l8.6-0.6"/>
		<path id="path4518_2_" inkscape:connector-curvature="0" class="st31" d="M167.1,815.6l6.9,2.3"/>
		<path id="path4520_2_" inkscape:connector-curvature="0" sodipodi:nodetypes="cc" class="st31" d="M175.8,800.7l0.6,8.4"/>
		<path id="path4522_2_" inkscape:connector-curvature="0" class="st31" d="M181.7,799.3l3.7,6.1"/>
		<path id="path4524_2_" inkscape:connector-curvature="0" sodipodi:nodetypes="cc" class="st31" d="M192.6,804.1l-8.1,3.4"/>
		<path id="path4526_2_" inkscape:connector-curvature="0" sodipodi:nodetypes="cc" class="st31" d="M196.2,809.2l-5.7,5.7"/>
		<path id="path4528_2_" inkscape:connector-curvature="0" class="st31" d="M194.5,821.3l-4.2-6.5"/>
		<path id="path4530_2_" inkscape:connector-curvature="0" class="st31" d="M190.5,825.8l-6.9-3.3"/>
	</g>
</g>
</svg>
